<svg xmlns="http://www.w3.org/2000/svg" viewBox="0 0 619.93 272.67"><defs><style>.cls-1{fill:#28aae1;}.cls-2{fill:#2d358e;}.cls-3{fill:#00aeef;}</style></defs><title>CDT_logo-sub_blue</title><g id="Layer_2" data-name="Layer 2"><g id="Layer_1-2" data-name="Layer 1"><path class="cls-1" d="M155.45,155.65a27.32,27.32,0,1,1,0-38.64l12.88-12.88a45.54,45.54,0,1,0,0,64.4Z"/><path class="cls-1" d="M263.65,136.33a45.55,45.55,0,1,1-45.54-45.54A45.54,45.54,0,0,1,263.65,136.33ZM218.1,109a27.33,27.33,0,1,0,27.32,27.32A27.32,27.32,0,0,0,218.1,109Z"/><path class="cls-2" d="M316.15,93.47h-40v85.72h40a42.86,42.86,0,1,0,0-85.72Zm-.71,67.87H294v-50h21.43a25,25,0,0,1,0,50Z"/><polygon class="cls-2" points="530.74 93.47 445.02 93.47 445.02 111.33 478.94 111.33 478.94 179.2 496.81 179.2 496.81 111.33 530.74 111.33 530.74 93.47"/><path class="cls-2" d="M405.34,93.47l-49.5,85.73h20.62l6.71-11.61h48.46l6.7,11.61H459L409.46,93.47Zm-11.86,56.26,13.92-24.11,13.92,24.11Z"/><path class="cls-2" d="M599.31,179.2h20.62L570.44,93.47h-4.13L516.82,179.2h20.62l6.7-11.61h48.47Zm-44.86-29.47,13.92-24.11,13.92,24.11Z"/><circle class="cls-2" cx="97.96" cy="70.2" r="10.36"/><circle class="cls-2" cx="97.96" cy="202.47" r="10.36"/><circle class="cls-2" cx="174.36" cy="202.47" r="10.36"/><circle class="cls-2" cx="70.2" cy="97.85" r="10.36"/><circle class="cls-2" cx="59.84" cy="136.33" r="10.36"/><circle class="cls-2" cx="70.2" cy="174.82" r="10.36"/><circle class="cls-2" cx="174.36" cy="70.2" r="10.36"/><circle class="cls-2" cx="136.33" cy="59.97" r="10.36"/><circle class="cls-1" cx="136.33" cy="14.51" r="14.51"/><circle class="cls-1" cx="74.97" cy="30.83" r="14.51"/><circle class="cls-1" cx="30.83" cy="75.44" r="14.51"/><circle class="cls-1" cx="14.51" cy="136.33" r="14.51"/><circle class="cls-1" cx="30.83" cy="197.2" r="14.51"/><circle class="cls-1" cx="75.35" cy="241.84" r="14.51"/><circle class="cls-1" cx="136.33" cy="258.16" r="14.51"/><circle class="cls-1" cx="197.32" cy="241.84" r="14.51"/><circle class="cls-1" cx="196.92" cy="30.83" r="14.51"/><circle class="cls-2" cx="136.33" cy="212.7" r="10.36"/><path class="cls-3" d="M280.18,209.15V228H278.3V209.15Z"/><path class="cls-3" d="M301.22,209.15V228H299.6l-10.52-15.37V228H287.2V209.15h1.61l10.52,15.37V209.15Z"/><path class="cls-3" d="M320.09,210.94H314.3V228h-1.89V210.94h-5.8v-1.79h13.48Z"/><path class="cls-3" d="M336.54,226.25V228H325.49V209.15h10.92v1.79h-9v6.68h8.36v1.78h-8.36v6.85Z"/><path class="cls-3" d="M349.65,220.48h-5.28V228h-1.89V209.15H350a5.66,5.66,0,0,1,1.59,11.09l4.61,7.79h-2.16Zm-5.28-1.78H350a3.88,3.88,0,0,0,0-7.76h-5.66Z"/><path class="cls-3" d="M375.65,209.15V228H374l-10.52-15.37V228h-1.88V209.15h1.62l10.51,15.37V209.15Z"/><path class="cls-3" d="M393.47,223.39h-9L382.77,228h-2L388,209.15H390L397.22,228h-2Zm-.67-1.78L389,211.5l-3.8,10.11Z"/><path class="cls-3" d="M412.86,210.94h-5.79V228h-1.89V210.94h-5.8v-1.79h13.48Z"/><path class="cls-3" d="M420.15,209.15V228h-1.89V209.15Z"/><path class="cls-3" d="M426.08,218.59a9.76,9.76,0,1,1,9.76,9.76A9.69,9.69,0,0,1,426.08,218.59Zm17.63,0a7.87,7.87,0,1,0-7.87,7.93A7.8,7.8,0,0,0,443.71,218.59Z"/><path class="cls-3" d="M465.56,209.15V228h-1.62l-10.51-15.37V228h-1.89V209.15h1.62l10.51,15.37V209.15Z"/><path class="cls-3" d="M483.39,223.39h-9L472.68,228h-2l7.25-18.88h1.94L487.13,228h-2Zm-.68-1.78-3.8-10.11-3.8,10.11Z"/><path class="cls-3" d="M502.78,226.25V228H492.26V209.15h1.89v17.1Z"/><path class="cls-3" d="M277.22,259.74l1.62-.94c.67,2.26,2.45,3.72,5.42,3.72s4.44-1.38,4.44-3.4c0-2.18-1.86-2.88-4.63-3.8-3.08-1-6-1.83-6-5.31,0-3.32,2.67-5.18,5.79-5.18a6.64,6.64,0,0,1,6.23,4.07l-1.59.89a4.77,4.77,0,0,0-4.64-3.12c-2.26,0-3.91,1.18-3.91,3.26s1.62,2.69,4.18,3.53c3.43,1.13,6.5,2.1,6.5,5.61,0,3.23-2.59,5.28-6.36,5.28C280.75,264.35,278.19,262.6,277.22,259.74Z"/><path class="cls-3" d="M295.31,254.59a9.63,9.63,0,0,1,9.9-9.76,9.32,9.32,0,0,1,8.17,4.64l-1.67,1a7.26,7.26,0,0,0-6.5-3.77,7.93,7.93,0,1,0,0,15.85,7.25,7.25,0,0,0,6.5-3.78l1.67.95a9.26,9.26,0,0,1-8.17,4.66A9.63,9.63,0,0,1,295.31,254.59Z"/><path class="cls-3" d="M321.07,245.15V264h-1.89V245.15Z"/><path class="cls-3" d="M339.13,262.25V264H328.08V245.15H339v1.79h-9v6.68h8.36v1.78H330v6.85Z"/><path class="cls-3" d="M359.09,245.15V264h-1.62L347,248.66V264h-1.89V245.15h1.62l10.51,15.37V245.15Z"/><path class="cls-3" d="M365,254.59a9.62,9.62,0,0,1,9.89-9.76,9.29,9.29,0,0,1,8.17,4.64l-1.67,1a7.26,7.26,0,0,0-6.5-3.77,7.93,7.93,0,1,0,0,15.85,7.25,7.25,0,0,0,6.5-3.78l1.67.95a9.26,9.26,0,0,1-8.17,4.66A9.62,9.62,0,0,1,365,254.59Z"/><path class="cls-3" d="M400,262.25V264H388.89V245.15h10.92v1.79h-9v6.68h8.36v1.78h-8.36v6.85Z"/><path class="cls-3" d="M414.24,254.59a9.63,9.63,0,0,1,9.9-9.76,9.32,9.32,0,0,1,8.17,4.64l-1.67,1a7.26,7.26,0,0,0-6.5-3.77,7.93,7.93,0,1,0,0,15.85,7.25,7.25,0,0,0,6.5-3.78l1.67.95a9.26,9.26,0,0,1-8.17,4.66A9.63,9.63,0,0,1,414.24,254.59Z"/><path class="cls-3" d="M437,254.59a9.76,9.76,0,1,1,9.76,9.76A9.69,9.69,0,0,1,437,254.59Zm17.63,0a7.87,7.87,0,1,0-7.87,7.93A7.8,7.8,0,0,0,454.66,254.59Z"/><path class="cls-3" d="M462.08,257.61V245.15H464v12.46c0,3,1.86,4.91,5.12,4.91s5.13-1.91,5.13-4.91V245.15h1.88v12.46c0,4.13-2.88,6.74-7,6.74S462.08,261.74,462.08,257.61Z"/><path class="cls-3" d="M496.87,245.15V264h-1.62l-10.51-15.37V264h-1.89V245.15h1.62L495,260.52V245.15Z"/><path class="cls-3" d="M502.81,254.59a9.62,9.62,0,0,1,9.89-9.76,9.29,9.29,0,0,1,8.17,4.64l-1.67,1a7.26,7.26,0,0,0-6.5-3.77,7.93,7.93,0,1,0,0,15.85,7.25,7.25,0,0,0,6.5-3.78l1.67.95a9.26,9.26,0,0,1-8.17,4.66A9.62,9.62,0,0,1,502.81,254.59Z"/><path class="cls-3" d="M528.56,245.15V264h-1.89V245.15Z"/><path class="cls-3" d="M546.09,262.25V264H535.57V245.15h1.89v17.1Z"/><path class="cls-3" d="M277.22,59.85a9.63,9.63,0,0,1,9.89-9.77,9.29,9.29,0,0,1,8.17,4.64l-1.67,1a7.26,7.26,0,0,0-6.5-3.77,7.93,7.93,0,1,0,0,15.85,7.26,7.26,0,0,0,6.5-3.77l1.67.94a9.25,9.25,0,0,1-8.17,4.67A9.62,9.62,0,0,1,277.22,59.85Z"/><path class="cls-3" d="M300,59.85a9.76,9.76,0,1,1,9.76,9.76A9.69,9.69,0,0,1,300,59.85Zm17.63,0a7.88,7.88,0,1,0-7.87,7.92A7.81,7.81,0,0,0,317.64,59.85Z"/><path class="cls-3" d="M342.72,69.28h-1.89v-16l-6.6,11H334l-6.61-11v16h-1.89V50.41h2.35l6.28,10.51,6.28-10.51h2.35Z"/><path class="cls-3" d="M367,69.28H365.1v-16l-6.6,11h-.27l-6.61-11v16h-1.89V50.41h2.35l6.28,10.51,6.28-10.51H367Z"/><path class="cls-3" d="M375.89,50.41V69.28H374V50.41Z"/><path class="cls-3" d="M394.77,52.19H389V69.28h-1.89V52.19h-5.79V50.41h13.48Z"/><path class="cls-3" d="M412,52.19h-5.8V69.28h-1.89V52.19h-5.79V50.41H412Z"/><path class="cls-3" d="M428.48,67.5v1.78H417.42V50.41h10.92v1.78h-9v6.68h8.36v1.78h-8.36V67.5Z"/><path class="cls-3" d="M445.47,67.5v1.78H434.41V50.41h10.92v1.78h-9v6.68h8.36v1.78H436.3V67.5Z"/><path class="cls-3" d="M459.76,59.85a9.76,9.76,0,1,1,9.76,9.76A9.69,9.69,0,0,1,459.76,59.85Zm17.64,0a7.88,7.88,0,1,0-7.88,7.92A7.81,7.81,0,0,0,477.4,59.85Z"/><path class="cls-3" d="M499.24,50.41V69.28h-1.62L487.11,53.91V69.28h-1.89V50.41h1.62l10.51,15.37V50.41Z"/><path class="cls-3" d="M531.87,59.85c0,5.2-3.69,9.43-8.89,9.43H515.7V50.41H523C528.18,50.41,531.87,54.64,531.87,59.85Zm-1.83,0c0-4.24-2.86-7.66-7.06-7.66h-5.4V67.5H523C527.18,67.5,530,64.08,530,59.85Z"/><path class="cls-3" d="M548,64.64h-9l-1.76,4.64h-2l7.25-18.87h1.94l7.25,18.87h-2Zm-.68-1.78-3.8-10.11-3.8,10.11Z"/><path class="cls-3" d="M567.34,52.19h-5.8V69.28h-1.89V52.19h-5.79V50.41h13.48Z"/><path class="cls-3" d="M582.2,64.64h-9l-1.76,4.64h-2l7.25-18.87h1.94l7.25,18.87h-2Zm-.68-1.78-3.8-10.11-3.8,10.11Z"/></g></g></svg>